<?xml version="1.0" encoding="UTF-8"?><svg xmlns="http://www.w3.org/2000/svg" xmlns:xlink="http://www.w3.org/1999/xlink" version="1.2" width="100%" viewBox="0 0 500 500" xml:space="preserve" baseProfile="tiny-ps"><title>New Marketing Opportunities</title><path fill="#20A5CB" stroke="none" d=" M232.000000,501.000000   C156.000015,501.000000 80.499992,500.970337 5.000215,501.096252   C1.575883,501.101959 0.903036,500.423798 0.905301,497.000000   C1.013779,333.000092 1.013772,169.000122 0.905334,5.000236   C0.903070,1.576911 1.575827,0.903023 4.999887,0.905288   C168.999771,1.013774 332.999725,1.013761 496.999634,0.905352   C500.422668,0.903090 501.096985,1.575449 501.094727,4.999768   C500.986206,168.999649 500.986237,332.999634 501.094604,496.999542   C501.096893,500.422333 500.425385,501.100586 497.000305,501.095856   C408.833649,500.974487 320.666809,501.000000 232.000000,501.000000  z"></path><path fill="#222424" stroke="none" d=" M207.492905,227.899323   C212.003296,258.416504 211.715118,288.903625 211.565674,319.388702   C211.552460,322.084473 210.814667,323.279877 207.886749,323.222046   C200.058762,323.067444 192.222809,323.047546 184.396072,323.231384   C181.270706,323.304810 180.421783,322.123352 180.425949,319.171082   C180.489624,274.017670 180.495010,228.864105 180.419601,183.710739   C180.414398,180.592010 181.523102,179.726700 184.515198,179.773926   C194.176636,179.926407 203.844330,179.949219 213.504517,179.760712   C216.648346,179.699371 218.171356,180.637497 219.245422,183.721527   C228.598618,210.577972 239.861725,236.767151 247.320038,264.286957   C247.614563,265.373688 248.100754,266.408447 248.661301,267.904144   C250.398026,266.345459 250.586655,264.526245 251.030380,262.880615   C258.363312,235.685684 269.068268,209.634399 278.048615,182.998764   C278.896057,180.485306 280.261505,179.754395 282.782928,179.783508   C292.778656,179.898972 302.778961,179.956558 312.772278,179.763016   C316.214417,179.696350 316.900940,181.077377 316.895721,184.175003   C316.819977,228.995132 316.812469,273.815491 316.907349,318.635590   C316.914551,322.029114 316.053101,323.358307 312.462158,323.244324   C304.971893,323.006592 297.457703,322.928680 289.975311,323.268951   C285.779327,323.459808 285.075714,321.785522 285.083801,318.071289   C285.147003,289.095062 284.378326,260.091339 288.879089,231.308792   C289.106750,229.853180 289.034424,228.350662 289.110229,226.683304   C286.884674,227.404037 287.087097,229.333984 286.619354,230.723053   C278.015930,256.271912 268.554321,281.510986 259.362762,306.848297   C258.106873,310.310242 256.443115,311.280304 252.937363,311.254822   C238.735031,311.151642 238.839844,311.225616 233.802399,297.834167   C225.192719,274.946411 216.783478,251.989731 209.022614,228.402130   C208.595184,227.483826 208.133484,227.417267 207.492905,227.899323  z"></path><path fill="#222425" stroke="none" d=" M113.824844,197.001511   C113.829201,192.004196 113.910637,187.504822 113.806465,183.009735   C113.751755,180.648911 114.676888,179.786896 117.022194,179.808044   C125.683533,179.886169 134.347961,179.939392 143.007050,179.777603   C146.074524,179.720291 146.588852,181.171936 146.559769,183.730957   C146.476471,191.059448 146.536301,198.389511 146.536423,205.718964   C146.537018,242.865982 146.449890,280.013458 146.643997,317.159485   C146.668808,321.904724 145.552719,323.540588 140.615448,323.290253   C132.307861,322.869080 123.958405,323.007141 115.636978,323.256989   C112.312408,323.356812 110.621223,322.228455 109.153137,319.276825   C93.746758,288.301483 76.821716,258.076019 63.291477,226.174759   C62.918785,225.296021 62.408249,224.475769 60.963566,223.808578   C61.742340,231.379486 62.385765,238.967239 63.324810,246.518219   C66.359314,270.919128 64.749306,295.427063 65.200821,319.887390   C65.251717,322.644653 63.998417,323.226379 61.582691,323.200684   C53.587860,323.115631 45.581272,322.931580 37.599861,323.271118   C33.293297,323.454346 32.362976,321.912201 32.380817,317.875916   C32.528084,284.560852 32.463478,251.244858 32.463341,217.929138   C32.463295,206.934952 32.656219,195.935745 32.368191,184.949112   C32.255852,180.664001 33.726826,179.600739 37.777309,179.741135   C46.096245,180.029510 54.437664,180.004868 62.758575,179.746582   C66.438477,179.632339 68.324348,180.909607 69.983574,184.214783   C85.503571,215.130997 102.728470,245.201218 115.979233,277.241699   C116.280655,277.970520 116.744087,278.632355 117.568954,279.233124   C116.622643,265.590820 114.378639,252.097244 114.053162,238.473602   C113.727028,224.822128 113.881210,211.159149 113.824844,197.001511  z"></path><path fill="#222323" stroke="none" d=" M347.776459,279.214539   C342.326782,259.221527 342.380920,239.604919 348.444122,220.238312   C357.109985,192.558640 381.008148,176.236099 410.916870,177.023376   C447.075592,177.975189 471.247253,201.226578 474.827209,238.766891   C476.375641,255.004700 475.219757,270.982483 469.166626,286.384918   C457.494263,316.085632 430.524170,328.791626 401.645844,325.513641   C373.623779,322.332825 356.142914,306.222382 347.776459,279.214539  z"></path><path fill="#217C96" stroke="none" d=" M207.655151,228.145233   C207.066803,227.123642 206.281067,225.696518 207.512939,225.227310   C208.385391,224.895050 208.542343,226.568146 208.916595,227.725372   C208.575623,228.076736 208.241470,228.108994 207.655151,228.145233  z"></path><path fill="#20A4CA" stroke="none" d=" M399.126587,294.150024   C390.332184,290.043365 385.589447,282.978455 382.841278,274.475739   C377.947266,259.333954 377.772797,243.998398 382.350250,228.792831   C387.052673,213.172043 398.083557,205.476257 413.157684,206.916489   C424.518585,208.001938 431.876312,214.893799 435.676636,224.959122   C442.523010,243.091797 442.455811,261.539032 434.663635,279.411652   C428.313782,293.976105 414.583374,299.438416 399.126587,294.150024  z"></path></svg>